<svg width="64" height="47" viewBox="0 0 64 47" fill="none" xmlns="http://www.w3.org/2000/svg">
<path d="M60.4284 41.2756L7.60778 46.4389C5.43244 46.6514 3.49465 45.0637 3.28209 42.8884L0.0190797 9.5206C-0.193479 7.34526 1.39425 5.40746 3.56959 5.1949L56.3902 0.0190797C58.5655 -0.193479 60.5033 1.39425 60.7159 3.56959L63.9789 36.9498C64.2039 39.1252 62.6037 41.063 60.4284 41.2756Z" fill="#10B5C0"/>
<path d="M56.3913 0.0194382L32 2.40733V44.0512L60.4294 41.2633C62.6047 41.0508 64.1925 39.113 63.9799 36.9376L60.7169 3.58244C60.5044 1.4071 58.5666 -0.19312 56.3913 0.0194382Z" fill="#1197A0"/>
<path d="M14.297 24.4107L8.48365 24.9858C7.59605 25.0734 6.80838 24.4232 6.72084 23.5356L6.34579 19.6725C6.25825 18.7849 6.90841 17.9972 7.79601 17.9097L13.6094 17.3346C14.497 17.247 15.2847 17.8972 15.3722 18.7848L15.7473 22.6479C15.8347 23.5356 15.1846 24.3233 14.297 24.4107Z" fill="#424566"/>
<path d="M14.2978 24.323L8.47194 24.8981C7.6343 24.9856 6.8967 24.373 6.80916 23.5354L6.43411 19.6598C6.34657 18.8222 6.95916 18.0846 7.79679 17.997L13.6227 17.4219C14.4603 17.3344 15.1979 17.9469 15.2855 18.7846L15.6605 22.6602C15.7356 23.4978 15.1355 24.2354 14.2978 24.323Z" fill="#FEBD55"/>
<path d="M15.4835 20.8473L15.4586 20.6097L12.3705 20.9097L12.2705 19.8595L12.9956 18.9844L15.2835 18.7594C15.271 18.6843 15.2585 18.5969 15.2335 18.5218L12.9082 18.7469C12.8832 18.7469 12.8456 18.7718 12.8331 18.7843L12.083 19.697L11.0328 19.7971L10.8203 17.6968L10.5827 17.7218L10.7953 19.8345L9.75758 19.9346L8.84489 19.1845C8.81991 19.1595 8.78233 19.1595 8.75735 19.1595L6.41952 19.3845C6.40703 19.4596 6.40703 19.547 6.41952 19.6221L8.73237 19.397L9.59499 20.1097L9.69502 21.1723L6.607 21.4723L6.63198 21.7099L9.72001 21.4099L9.82004 22.4726L9.11991 23.3227L6.80706 23.5477C6.81955 23.6228 6.83205 23.7102 6.85703 23.7853L9.19485 23.5602C9.21984 23.5602 9.25742 23.5353 9.26991 23.5103L10.02 22.5976L11.0577 22.4976L11.2703 24.6103L11.5078 24.5853L11.2952 22.4726L12.3454 22.3725L13.2581 23.1226C13.2831 23.1476 13.3081 23.1476 13.3457 23.1476L15.671 22.9226C15.6835 22.8475 15.6835 22.7601 15.671 22.685L13.3831 22.9101L12.508 22.185L12.408 21.1348L15.4835 20.8473ZM12.2455 22.1475L10.0577 22.36L9.84513 20.1722L12.033 19.9597L12.2455 22.1475Z" fill="#B5613C"/>
<path d="M55.928 20.1726C55.8781 20.1726 55.8155 20.1726 55.7655 20.1476C55.578 20.0726 55.4905 19.8726 55.5655 19.685C56.3031 17.7847 56.103 15.6969 55.0028 13.9717C54.9028 13.8092 54.9529 13.5841 55.1154 13.4841C55.2779 13.3841 55.5029 13.4341 55.6029 13.5966C56.8156 15.5094 57.0407 17.8348 56.228 19.9476C56.178 20.0727 56.053 20.1476 55.928 20.1726ZM54.6403 19.6101C55.4404 17.8098 55.2404 15.847 54.1152 14.2217C54.0027 14.0592 53.7777 14.0216 53.6152 14.1342C53.4527 14.2467 53.4151 14.4717 53.5276 14.6342C54.5153 16.047 54.6779 17.7472 53.9902 19.3225C53.9152 19.4975 53.9902 19.71 54.1778 19.7976C54.2404 19.8225 54.3028 19.835 54.3528 19.8225C54.4653 19.8101 54.5778 19.7351 54.6403 19.6101ZM53.0775 19.285C53.8777 17.8223 53.7151 16.1345 52.6399 14.8593C52.5149 14.7093 52.2899 14.6843 52.1399 14.8093C51.9899 14.9343 51.9649 15.1594 52.0899 15.3094C52.965 16.3596 53.1025 17.7472 52.44 18.9349C52.3399 19.1099 52.4025 19.3225 52.5775 19.4225C52.64 19.46 52.715 19.4725 52.7775 19.46C52.915 19.4475 53.0151 19.385 53.0775 19.285ZM51.4273 18.9725C51.9024 18.4475 52.1275 17.7973 52.0524 17.1348C51.9899 16.4847 51.6399 15.8846 51.0773 15.4595C50.9148 15.3345 50.6897 15.3719 50.5772 15.522C50.4522 15.6845 50.4897 15.9096 50.6398 16.0221C51.0398 16.3347 51.2898 16.7472 51.3399 17.1973C51.3899 17.6474 51.2274 18.11 50.8898 18.4851C50.7648 18.6351 50.7773 18.8601 50.9148 18.9851C50.9898 19.0602 51.0898 19.0851 51.1898 19.0727C51.2897 19.0849 51.3648 19.0475 51.4273 18.9725Z" fill="#CAD4FF"/>
<path d="M32.9495 37.9253L8.80823 40.2882C8.60816 40.3132 8.43318 40.1632 8.42069 39.9631C8.39571 39.7631 8.54571 39.5881 8.74577 39.5756L32.8745 37.2127C33.0745 37.1877 33.2495 37.3377 33.262 37.5378C33.2746 37.7378 33.137 37.9003 32.9495 37.9253Z" fill="#E6EAFF"/>
<path d="M32.8751 37.2127L32 37.3002V38.0129L32.9502 37.9253C33.1502 37.9003 33.2877 37.7253 33.2752 37.5378C33.2502 37.3377 33.0752 37.2002 32.8751 37.2127Z" fill="#CAD4FF"/>
<path d="M58.1526 35.4624L53.5769 35.9125C53.3768 35.9375 53.2019 35.7875 53.1894 35.5874C53.1769 35.3874 53.3144 35.2124 53.5144 35.1999L58.0902 34.7498C58.2902 34.7248 58.4652 34.8748 58.4777 35.0749C58.4902 35.2748 58.3527 35.4374 58.1526 35.4624ZM51.6016 35.7374C51.5766 35.5374 51.4016 35.3999 51.2141 35.4123L46.6384 35.8624C46.4383 35.8874 46.3008 36.0625 46.3133 36.25C46.3258 36.4375 46.5134 36.5876 46.7008 36.5751L51.2765 36.125C51.4766 36.1125 51.6266 35.9375 51.6016 35.7374Z" fill="#CAD4FF"/>
<path d="M6.14496 13.0963C5.94489 13.1213 5.76991 12.9713 5.75742 12.7712L5.61991 11.3836C5.59493 11.1835 5.74493 11.0085 5.94499 10.996C6.14506 10.971 6.32004 11.121 6.33253 11.3211L6.47004 12.7088C6.48253 12.9087 6.34502 13.0838 6.14496 13.0963ZM8.40784 12.5212L8.27033 11.1335C8.24535 10.9335 8.07026 10.796 7.88279 10.8085C7.68272 10.8334 7.54522 11.0085 7.55771 11.196L7.69521 12.5837C7.7202 12.7837 7.89528 12.9212 8.08275 12.9087C8.28282 12.8962 8.42033 12.7213 8.40784 12.5212ZM10.3456 12.3337L10.2081 10.9461C10.1831 10.746 10.0081 10.6085 9.82059 10.621C9.62052 10.646 9.48301 10.821 9.4955 11.0085L9.63301 12.3962C9.65799 12.5962 9.83308 12.7338 10.0205 12.7213C10.2206 12.7088 10.3581 12.5337 10.3456 12.3337ZM12.2834 12.1462L12.1459 10.7585C12.1209 10.5584 11.9459 10.4209 11.7584 10.4334C11.5583 10.4584 11.4208 10.6335 11.4333 10.8209L11.5708 12.2086C11.5958 12.4087 11.7709 12.5462 11.9583 12.5337C12.1584 12.5087 12.2959 12.3337 12.2834 12.1462Z" fill="#E6EAFF"/>
<path d="M8.95777 34.1876H8.89521C8.29511 34.2502 7.77007 33.8126 7.70751 33.2125L7.54502 31.5247C7.48246 30.9246 7.92006 30.3996 8.52016 30.337H8.58272C9.18282 30.2744 9.70786 30.7121 9.77042 31.3122L9.93291 32.9999C9.98288 33.6 9.54527 34.1252 8.95777 34.1876ZM8.58262 31.0621C8.38255 31.0871 8.23255 31.2622 8.25753 31.4622L8.42002 33.1499C8.445 33.35 8.62009 33.5 8.82005 33.475H8.88261C9.08268 33.45 9.23268 33.2749 9.20769 33.075L9.04521 31.3872C9.02022 31.1871 8.84514 31.0371 8.64518 31.0621H8.58262Z" fill="#E6EAFF"/>
<path d="M11.8347 33.9H11.7722C11.1721 33.9626 10.647 33.525 10.5845 32.9249L10.422 31.2371C10.3594 30.637 10.797 30.112 11.3971 30.0494H11.4597C12.0598 29.9869 12.5848 30.4245 12.6474 31.0246L12.8099 32.7123C12.8724 33.3124 12.4348 33.85 11.8347 33.9ZM11.4722 30.7745C11.2721 30.7995 11.1221 30.9746 11.1471 31.1746L11.3096 32.8623C11.3346 33.0624 11.5096 33.2124 11.7096 33.1874H11.7722C11.9722 33.1624 12.1222 32.9873 12.0972 32.7874L11.9348 31.0996C11.9098 30.8995 11.7347 30.7495 11.5347 30.7745H11.4722Z" fill="#E6EAFF"/>
<path d="M14.7195 33.6246H14.6569C14.0568 33.6872 13.5318 33.2496 13.4692 32.6495L13.3067 30.9617C13.2442 30.3616 13.6818 29.8366 14.2819 29.774H14.3444C14.9445 29.7115 15.4696 30.1491 15.5321 30.7492L15.6946 32.4369C15.7447 33.037 15.3071 33.5621 14.7195 33.6246ZM14.3444 30.4991C14.1444 30.5241 13.9944 30.6992 14.0194 30.8992L14.1818 32.5869C14.2068 32.787 14.3819 32.937 14.5819 32.912H14.6444C14.8445 32.887 14.9945 32.7119 14.9695 32.512L14.807 30.8242C14.782 30.6241 14.607 30.4741 14.407 30.4991H14.3444Z" fill="#E6EAFF"/>
<path d="M17.5964 33.3375H17.5339C16.9338 33.4001 16.4087 32.9625 16.3462 32.3624L16.1837 30.6746C16.1211 30.0745 16.5587 29.5495 17.1588 29.4869H17.2214C17.8215 29.4244 18.3465 29.862 18.4091 30.4621L18.5716 32.1498C18.6341 32.7499 18.1965 33.2751 17.5964 33.3375ZM17.2339 30.212C17.0338 30.237 16.8838 30.4121 16.9088 30.6121L17.0713 32.2998C17.0963 32.4999 17.2714 32.6499 17.4713 32.6249H17.5339C17.7339 32.5999 17.8839 32.4248 17.859 32.2249L17.6965 30.5371C17.6715 30.337 17.4964 30.187 17.2964 30.212H17.2339Z" fill="#E6EAFF"/>
<path d="M22.0222 32.8995H21.9597C21.3596 32.9621 20.8345 32.5245 20.772 31.9244L20.6095 30.2366C20.5469 29.6365 20.9845 29.1115 21.5846 29.0489H21.6472C22.2473 28.9864 22.7723 29.424 22.8349 30.0241L22.9974 31.7118C23.0473 32.3119 22.6097 32.8495 22.0222 32.8995ZM21.6471 29.7865C21.447 29.8115 21.297 29.9866 21.322 30.1866L21.4845 31.8743C21.5095 32.0744 21.6845 32.2244 21.8845 32.1994H21.9471C22.1471 32.1744 22.2971 31.9993 22.2721 31.7994L22.1097 30.1116C22.0847 29.9115 21.9096 29.7615 21.7096 29.7865H21.6471Z" fill="#E6EAFF"/>
<path d="M24.8992 32.6246H24.8366C24.2365 32.6871 23.7115 32.2496 23.6489 31.6495L23.4864 29.9617C23.4239 29.3616 23.8615 28.8366 24.4616 28.774H24.5241C25.1242 28.7115 25.6493 29.1491 25.7118 29.7492L25.8743 31.4369C25.9369 32.0371 25.4993 32.5622 24.8992 32.6246ZM24.5366 29.4991C24.3366 29.5241 24.1866 29.6992 24.2115 29.8992L24.374 31.5869C24.399 31.787 24.5741 31.937 24.7741 31.912H24.8366C25.0367 31.887 25.1867 31.7119 25.1617 31.512L24.9992 29.8242C24.9742 29.6241 24.7991 29.4742 24.5992 29.4991H24.5366Z" fill="#E6EAFF"/>
<path d="M27.7858 32.337H27.7233C27.1232 32.3996 26.5982 31.962 26.5356 31.3619L26.3731 29.6741C26.3106 29.074 26.7482 28.549 27.3483 28.4864H27.4108C28.0109 28.4239 28.536 28.8615 28.5985 29.4616L28.7609 31.1493C28.811 31.7494 28.3734 32.2871 27.7858 32.337ZM27.4107 29.224C27.2107 29.249 27.0607 29.4241 27.0857 29.6241L27.2481 31.3118C27.2731 31.5119 27.4482 31.6619 27.6482 31.6369H27.7107C27.9108 31.6119 28.0608 31.4368 28.0358 31.2369L27.8733 29.5491C27.8483 29.349 27.6733 29.199 27.4733 29.224H27.4107Z" fill="#E6EAFF"/>
<path d="M30.6609 32.0616H30.5983C29.9982 32.1241 29.4732 31.6866 29.4106 31.0865L29.2481 29.3987C29.1856 28.7986 29.6232 28.2736 30.2233 28.211H30.2858C30.8859 28.1485 31.411 28.5861 31.4736 29.1862L31.636 30.8739C31.6986 31.474 31.261 31.9991 30.6609 32.0616ZM30.2983 28.9361C30.0983 28.9611 29.9483 29.1362 29.9733 29.3362L30.1357 31.0239C30.1607 31.224 30.3358 31.374 30.5358 31.349H30.5983C30.7984 31.324 30.9484 31.149 30.9234 30.949L30.7609 29.2612C30.7359 29.0612 30.5609 28.9112 30.3609 28.9361H30.2983Z" fill="#E6EAFF"/>
<path d="M35.0867 31.6246H35.0241C34.424 31.6872 33.899 31.2496 33.8364 30.6495L33.6739 28.9617C33.6114 28.3616 34.049 27.8366 34.649 27.774H34.7115C35.3116 27.7115 35.8366 28.1491 35.8992 28.7492L36.0617 30.4369C36.1118 31.037 35.6742 31.5747 35.0867 31.6246ZM34.7115 28.4991C34.5114 28.5241 34.3614 28.6992 34.3864 28.8992L34.5489 30.5869C34.5739 30.787 34.749 30.937 34.9489 30.912H35.0115C35.2116 30.887 35.3616 30.7119 35.3366 30.512L35.1741 28.8242C35.1491 28.6241 34.974 28.4741 34.7741 28.4991H34.7115Z" fill="#CAD4FF"/>
<path d="M37.9617 31.3492H37.8991C37.299 31.4118 36.774 30.9742 36.7114 30.3741L36.5489 28.6863C36.4864 28.0862 36.924 27.5612 37.5241 27.4986H37.5866C38.1867 27.4361 38.7118 27.8737 38.7743 28.4738L38.9368 30.1615C38.9994 30.7616 38.5618 31.2867 37.9617 31.3492ZM37.5991 28.2237C37.3991 28.2487 37.2491 28.4238 37.274 28.6238L37.4365 30.3115C37.4615 30.5116 37.6366 30.6616 37.8366 30.6366H37.8991C38.0992 30.6116 38.2492 30.4366 38.2242 30.2366L38.0617 28.5488C38.0367 28.3488 37.8616 28.1988 37.6617 28.2237H37.5991Z" fill="#CAD4FF"/>
<path d="M40.8503 31.0621H40.7878C40.1877 31.1247 39.6626 30.6871 39.6001 30.087L39.4376 28.3992C39.375 27.7991 39.8126 27.2741 40.4127 27.2115H40.4753C41.0754 27.149 41.6004 27.5866 41.663 28.1867L41.8255 29.8744C41.8756 30.4746 41.438 30.9997 40.8503 31.0621ZM40.4753 27.9367C40.2752 27.9617 40.1252 28.1368 40.1502 28.3368L40.3127 30.0245C40.3377 30.2246 40.5128 30.3746 40.7127 30.3496H40.7753C40.9754 30.3246 41.1254 30.1496 41.1004 29.9496L40.9379 28.2618C40.9129 28.0618 40.7378 27.9118 40.5379 27.9367H40.4753Z" fill="#CAD4FF"/>
<path d="M43.7273 30.7867H43.6647C43.0646 30.8493 42.5396 30.4117 42.477 29.8116L42.3145 28.1238C42.252 27.5237 42.6896 26.9987 43.2897 26.9361H43.3523C43.9523 26.8736 44.4774 27.3112 44.54 27.9113L44.7024 29.599C44.7649 30.1866 44.3274 30.7243 43.7273 30.7867ZM43.3647 27.6612C43.1647 27.6862 43.0147 27.8613 43.0397 28.0613L43.2021 29.749C43.2271 29.9491 43.4022 30.0991 43.6022 30.0741H43.6647C43.8648 30.0491 44.0148 29.8741 43.9898 29.6741L43.8273 27.9863C43.8023 27.7863 43.6273 27.6363 43.4273 27.6612H43.3647Z" fill="#CAD4FF"/>
<path d="M48.1531 30.3492H48.0905C47.4904 30.4118 46.9654 29.9742 46.9028 29.3741L46.7403 27.6863C46.6778 27.0862 47.1154 26.5612 47.7155 26.4986H47.778C48.3781 26.4361 48.9032 26.8737 48.9657 27.4738L49.1282 29.1615C49.1783 29.7616 48.7407 30.2867 48.1531 30.3492ZM47.778 27.2237C47.578 27.2487 47.428 27.4238 47.453 27.6238L47.6154 29.3115C47.6404 29.5116 47.8155 29.6616 48.0155 29.6366H48.078C48.2781 29.6116 48.4281 29.4366 48.4031 29.2366L48.2406 27.5488C48.2156 27.3488 48.0406 27.1988 47.8406 27.2237H47.778Z" fill="#CAD4FF"/>
<path d="M51.0261 30.0621H50.9636C50.3635 30.1247 49.8384 29.6871 49.7759 29.087L49.6134 27.3992C49.5508 26.7991 49.9884 26.2741 50.5885 26.2115H50.6511C51.2512 26.149 51.7762 26.5866 51.8388 27.1867L52.0013 28.8744C52.0638 29.4745 51.6262 30.0122 51.0261 30.0621ZM50.6636 26.9491C50.4635 26.9741 50.3135 27.1492 50.3385 27.3492L50.501 29.0369C50.526 29.237 50.701 29.387 50.901 29.362H50.9636C51.1636 29.337 51.3136 29.1619 51.2886 28.962L51.1262 27.2742C51.1012 27.0741 50.9261 26.9241 50.7261 26.9491H50.6636Z" fill="#CAD4FF"/>
<path d="M53.9148 29.7867H53.8522C53.2521 29.8493 52.7271 29.4117 52.6645 28.8116L52.502 27.1238C52.4395 26.5237 52.8771 25.9987 53.4772 25.9361H53.5398C54.1398 25.8736 54.6649 26.3112 54.7275 26.9113L54.8899 28.599C54.94 29.1991 54.5024 29.7242 53.9148 29.7867ZM53.5398 26.6612C53.3397 26.6862 53.1897 26.8613 53.2147 27.0613L53.3772 28.749C53.4021 28.9491 53.5772 29.0991 53.7772 29.0741H53.8398C54.0398 29.0491 54.1898 28.8741 54.1648 28.6741L54.0023 26.9863C53.9774 26.7863 53.8023 26.6363 53.6023 26.6612H53.5398Z" fill="#CAD4FF"/>
<path d="M56.7918 29.4991H56.7292C56.1291 29.5617 55.6041 29.1241 55.5415 28.524L55.379 26.8362C55.3164 26.2361 55.7541 25.7111 56.3541 25.6485H56.4167C57.0168 25.586 57.5418 26.0236 57.6044 26.6237L57.7669 28.3114C57.8294 28.9116 57.3919 29.4492 56.7918 29.4991ZM56.4292 26.3862C56.2291 26.4112 56.0791 26.5863 56.1041 26.7863L56.2666 28.474C56.2916 28.6741 56.4667 28.8241 56.6666 28.7991H56.7292C56.9293 28.7741 57.0793 28.5991 57.0543 28.3991L56.8918 26.7113C56.8668 26.5113 56.6917 26.3613 56.4918 26.3862H56.4292Z" fill="#CAD4FF"/>
</svg>
