<svg width="24" height="24" viewBox="0 0 24 24" fill="none" xmlns="http://www.w3.org/2000/svg">
<path d="M8.07162 6.26266C7.86505 6.26266 7.65829 6.34171 7.50001 6.49999L6.49999 7.50001C6.18342 7.81658 6.18342 8.32643 6.49999 8.643L9.85699 12L6.49999 15.357C6.18342 15.6736 6.18342 16.1834 6.49999 16.5L7.50001 17.5C7.81658 17.8166 8.32643 17.8166 8.643 17.5L12 14.143L15.357 17.5C15.6736 17.8166 16.1834 17.8166 16.5 17.5L17.5 16.5C17.8166 16.1834 17.8166 15.6736 17.5 15.357L14.143 12L17.5 8.643C17.8166 8.32643 17.8166 7.81658 17.5 7.50001L16.5 6.49999C16.1834 6.18342 15.6736 6.18342 15.357 6.49999L12 9.85699L8.643 6.49999C8.48471 6.34171 8.27819 6.26266 8.07162 6.26266Z" fill="#10B5C0"/>
</svg>
